<svg width="290" height="222" viewBox="0 0 290 222" fill="none" xmlns="http://www.w3.org/2000/svg">
<g clip-path="url(#clip0_161_5)">
<path d="M135.028 199.275C135.979 200.437 136.95 201.588 137.938 202.721C139.399 204.4 140.901 206.045 142.442 207.654C142.834 208.066 143.229 208.472 143.626 208.875C144.052 209.313 144.481 209.742 144.913 210.174C145.408 209.681 145.898 209.187 146.384 208.688C146.761 208.305 147.133 207.92 147.503 207.528C149.063 205.899 150.582 204.231 152.059 202.528C153.092 201.337 154.105 200.13 155.096 198.907C156.335 197.379 157.54 195.828 158.711 194.254C164.511 186.453 169.502 178.045 173.547 169.25C181.978 150.924 186.254 131.326 186.254 110.999C186.254 110.376 186.251 109.751 186.242 109.129C186.19 105.09 185.968 101.077 185.577 97.1022C184.147 82.5428 180.458 68.4333 174.556 54.9925C174.227 54.2419 173.89 53.4943 173.547 52.7495C172.611 50.7167 171.625 48.7015 170.588 46.7126C167.151 40.0973 163.171 33.742 158.711 27.746C154.526 22.1179 149.904 16.7849 144.913 11.8256C139.923 16.7849 135.301 22.1179 131.115 27.746C126.682 33.707 122.723 40.0243 119.298 46.5986C118.239 48.6256 117.234 50.6758 116.279 52.7495C115.956 53.4534 115.638 54.1602 115.326 54.867C109.413 68.2989 105.711 82.391 104.265 96.9386C103.872 100.908 103.646 104.906 103.588 108.934C103.578 109.623 103.573 110.309 103.573 110.999C103.573 131.326 107.849 150.924 116.28 169.25C120.325 178.045 125.316 186.453 131.115 194.254C132.38 195.957 133.686 197.63 135.028 199.275V199.275ZM1.55085 51.9405C16.5623 52.4019 31.4827 55.0977 45.7629 59.981C45.6865 60.4629 45.616 60.9419 45.5426 61.4267C45.1901 63.8274 44.8906 66.2691 44.6468 68.7078C39.8681 67.0051 34.9926 65.5565 30.0553 64.3765C23.2119 62.741 16.2245 61.6078 9.19609 61.0003C8.57929 67.9893 8.48532 75.0281 8.91414 82.0142C9.51624 91.6961 11.1287 101.328 13.7133 110.651C19.1029 130.079 28.4957 147.825 41.6362 163.398C54.7721 178.967 70.717 191.246 89.0224 199.897C93.532 202.026 98.1676 203.921 102.895 205.566C107.373 207.128 111.935 208.466 116.549 209.567C118.561 210.049 120.587 210.487 122.621 210.878C94.6043 193.927 71.9743 167.741 59.8853 134.708C52.2086 113.735 49.5708 92.1576 51.3577 71.2896C51.6121 68.3165 51.9563 65.3608 52.3904 62.4197C54.9192 45.2026 60.4701 28.6105 68.681 13.3999C82.5984 18.9286 95.6629 26.5135 107.382 35.9267C107.147 36.3531 106.913 36.7766 106.681 37.203C105.517 39.3467 104.395 41.5401 103.331 43.7452C99.4494 40.5442 95.3932 37.5476 91.19 34.7818C85.3211 30.9178 79.1441 27.4773 72.7491 24.5158C69.7654 30.8711 67.2556 37.4542 65.2578 44.1658C63.1372 51.2979 61.5873 58.6024 60.6272 65.9653C60.335 68.2084 60.0979 70.4573 59.9164 72.7091C59.8524 73.5035 59.7951 74.2979 59.7452 75.0923C58.5207 94.3685 61.2986 113.423 68.0116 131.767C75.0031 150.868 85.7619 167.828 99.9871 182.183C103.436 185.662 107.077 188.968 110.885 192.078C114.616 195.121 118.504 197.984 122.529 200.633C124.198 201.734 125.892 202.797 127.608 203.825C107.154 178.38 94.9242 146.11 94.9242 110.999C94.9242 107.362 95.0558 103.755 95.3136 100.183C95.573 96.5881 95.9622 93.0279 96.4741 89.5085C98.5791 75.0427 102.776 61.2514 108.748 48.4474C110.011 45.7429 111.353 43.0822 112.772 40.4682C121.069 25.1729 131.98 11.4839 144.913 0C157.876 11.5102 168.806 25.2342 177.112 40.5734C178.529 43.1903 179.868 45.851 181.129 48.5613C187.094 61.3741 191.28 75.1712 193.373 89.6429C193.882 93.171 194.268 96.74 194.524 100.341C194.774 103.861 194.902 107.418 194.902 110.999C194.902 146.201 182.609 178.55 162.058 204.023C163.889 202.934 165.694 201.804 167.471 200.633C171.37 198.065 175.142 195.302 178.766 192.361C182.701 189.169 186.458 185.767 190.013 182.183C204.238 167.828 214.997 150.868 221.988 131.767C228.701 113.423 231.479 94.3685 230.255 75.0923C230.205 74.2979 230.148 73.5035 230.084 72.7091C229.902 70.4573 229.665 68.2084 229.372 65.9653C228.413 58.6024 226.863 51.2979 224.742 44.1658C222.744 37.4542 220.234 30.8711 217.25 24.5158C210.856 27.4773 204.679 30.9178 198.81 34.7818C194.562 37.5797 190.462 40.6114 186.544 43.8474C185.483 41.6394 184.362 39.4489 183.204 37.311C182.971 36.8817 182.736 36.4524 182.499 36.023C194.25 26.5631 207.355 18.9461 221.319 13.3999C229.53 28.6105 235.081 45.2026 237.61 62.4197C238.044 65.3608 238.388 68.3165 238.642 71.2896C240.429 92.1576 237.791 113.735 230.115 134.708C218.025 167.741 195.396 193.927 167.379 210.878C169.413 210.487 171.439 210.049 173.451 209.567C178.065 208.466 182.625 207.128 187.103 205.566C191.832 203.921 196.468 202.029 200.977 199.897C219.283 191.246 235.228 178.967 248.365 163.398C261.504 147.825 270.898 130.079 276.286 110.651C278.87 101.328 280.484 91.6961 281.084 82.0142C281.515 75.0281 281.422 67.9893 280.804 61.0003C273.776 61.6078 266.788 62.741 259.944 64.3765C255.007 65.5565 250.131 67.0051 245.352 68.7078C245.11 66.2691 244.81 63.8245 244.456 61.4208C244.385 60.9389 244.312 60.46 244.238 59.981C258.518 55.0977 273.439 52.4019 288.45 51.9405C294.338 92.4204 283.511 135.126 254.992 168.926C231.227 197.09 199.199 214.295 165.391 219.982C162.194 220.516 158.979 220.951 155.755 221.284C152.199 221.65 148.631 221.889 145.055 222L145.059 221.974C145.095 221.907 145.131 221.839 145.166 221.772C145.136 221.801 145.107 221.828 145.076 221.854C145.031 221.895 144.986 221.936 144.941 221.974C144.908 221.962 144.873 221.947 144.841 221.936C144.865 221.956 144.887 221.977 144.911 222C141.282 221.883 137.66 221.638 134.05 221.264C130.894 220.934 127.749 220.508 124.618 219.982H124.617C90.8075 214.298 58.7782 197.093 35.0071 168.926C6.48799 135.126 -4.33814 92.4204 1.55072 51.9405" fill="#F16240"/>
</g>
<defs>
<clipPath id="clip0_161_5">
<rect width="290" height="222" fill="white" transform="matrix(-1 0 0 1 290 0)"/>
</clipPath>
</defs>
</svg>
