<svg width="106" height="106" viewBox="0 0 106 106" fill="none" xmlns="http://www.w3.org/2000/svg">
<path fill-rule="evenodd" clip-rule="evenodd" d="M73.0208 63.2555L72.7513 66.25H91.7607C92.4055 63.4101 92.75 60.4509 92.75 57.4167L92.7323 56.3434L97.0916 49.4534L99.958 44.9307C101.018 48.9146 101.583 53.1016 101.583 57.4167C101.583 84.2302 79.8136 106 53 106C41.3312 106 30.6207 101.879 22.2423 95.0157C24.9674 93.6289 27.3303 91.637 29.15 89.2122C33.0852 92.167 37.5858 94.4151 42.4574 95.7533L42.0864 95.0467C39.6838 90.4313 37.6962 85.6038 36.1857 80.6262L35.9163 79.7076L44.0739 76.0903C44.4317 77.4109 44.8292 78.7227 45.2664 80.0256C46.8255 84.6984 48.866 89.2078 51.2952 93.492C51.8428 94.4592 52.4126 95.4088 53 96.3496C54.0865 94.5873 55.12 92.7986 56.074 90.9657C58.2249 86.8361 60.0048 82.521 61.3563 78.0646C61.6567 77.0797 61.9349 76.0859 62.1911 75.0833H46.3485L73.0208 63.2555ZM88.6116 75.0833H71.2717C70.6843 77.698 69.96 80.2817 69.112 82.8257C67.6192 87.2822 65.7465 91.6061 63.5382 95.7533C74.5312 92.7323 83.6252 85.1047 88.6116 75.0833ZM85.0164 41.0264C78.2987 30.3778 73.6082 22.3351 73.6082 15.3877C73.6082 6.89 81.3064 0 89.8041 0C98.3062 0 106 6.89 106 15.3877C106 23.8853 98.9775 34.0304 89.8041 48.5833L89.7952 48.5701L26.4956 76.638L26.5 76.9648C26.5 84.2788 20.5596 90.2148 13.25 90.2148C5.936 90.2148 0 84.2788 0 76.9648C0 69.6508 5.936 63.7148 13.25 63.7148C17.2868 63.7148 20.9041 65.5257 23.3333 68.3744L85.0164 41.0264ZM14.2349 48.5833C13.6077 51.3349 13.2721 54.1969 13.25 57.134V57.4167C10.0921 57.4167 7.10642 58.1542 4.45642 59.466L4.41667 57.4167C4.41667 30.6031 26.1864 8.83333 53 8.83333C58.0306 8.83333 62.8845 9.60183 67.4513 11.024C67.2658 11.8853 67.1333 12.7642 67.0582 13.6431C66.8639 15.9265 67.0627 18.1878 67.522 20.4094C66.1793 19.8794 64.8013 19.4245 63.3924 19.0402L64.2007 20.6258C66.7535 25.7359 68.8293 31.0933 70.3398 36.6053L71.1613 39.9178L51.7457 48.5833H42.2277C42.0334 50.0497 41.8832 51.5248 41.7817 53L32.7849 56.9882C32.8158 54.1792 32.9969 51.3747 33.3237 48.5833H14.2349ZM42.6032 19.0402C31.5482 22.0347 22.3925 29.6844 17.384 39.75H34.8652C35.2803 37.948 35.7573 36.1637 36.2962 34.3926C37.9038 29.0882 40.0371 23.9516 42.6032 19.0402ZM52.9956 18.5809C51.8252 20.5375 50.7166 22.5294 49.7007 24.5699C47.4041 29.1677 45.5358 33.9774 44.1799 38.9373L43.9591 39.75H62.0365C61.7317 38.5928 61.4005 37.4401 61.0427 36.3006C59.4925 31.3495 57.4343 26.5618 54.961 22.0038C54.3338 20.8467 53.6757 19.7072 52.9956 18.5809ZM89.8041 22.2688C86.4518 22.2688 83.7312 19.5482 83.7312 16.1959C83.7312 12.8392 86.4518 10.123 89.8041 10.123C93.1563 10.123 95.877 12.8392 95.877 16.1959C95.877 19.5482 93.1563 22.2688 89.8041 22.2688Z" fill="#EF4F29"/>
</svg>
