<svg width="115" height="27" viewBox="0 0 115 27" fill="none" xmlns="http://www.w3.org/2000/svg">
<path d="M26.904 3.34397V3.98397C26.2213 4.0053 25.6986 4.09064 25.336 4.23997C24.9733 4.36797 24.728 4.62397 24.6 5.00797C24.4933 5.37064 24.44 5.94664 24.44 6.73597V22.608C24.44 23.376 24.504 23.952 24.632 24.336C24.76 24.72 24.9946 24.976 25.336 25.104C25.6986 25.232 26.2213 25.3173 26.904 25.36V26C26.3493 25.9573 25.6453 25.936 24.792 25.936C23.9386 25.9146 23.0746 25.904 22.2 25.904C21.24 25.904 20.3333 25.9146 19.48 25.936C18.648 25.936 17.976 25.9573 17.464 26V25.36C18.1893 25.3173 18.7333 25.232 19.096 25.104C19.48 24.976 19.736 24.72 19.864 24.336C19.992 23.952 20.056 23.376 20.056 22.608V5.19997L20.28 5.23197L12.344 26.096H11.832L3.38396 5.39197V21.264C3.38396 22.288 3.44796 23.088 3.57596 23.664C3.70396 24.2186 3.98129 24.624 4.40796 24.88C4.85596 25.1146 5.52796 25.2746 6.42396 25.36V26C6.01863 25.9573 5.49596 25.936 4.85596 25.936C4.21596 25.9146 3.60796 25.904 3.03196 25.904C2.51996 25.904 1.99729 25.9146 1.46396 25.936C0.95196 25.936 0.525293 25.9573 0.18396 26V25.36C0.88796 25.2746 1.41063 25.1146 1.75196 24.88C2.11463 24.6453 2.34929 24.2613 2.45596 23.728C2.58396 23.1946 2.64796 22.4586 2.64796 21.52V6.73597C2.64796 5.94664 2.58396 5.37064 2.45596 5.00797C2.34929 4.62397 2.11463 4.36797 1.75196 4.23997C1.41063 4.09064 0.88796 4.0053 0.18396 3.98397V3.34397C0.525293 3.3653 0.95196 3.38664 1.46396 3.40797C1.99729 3.4293 2.51996 3.43997 3.03196 3.43997C3.82129 3.43997 4.58929 3.4293 5.33596 3.40797C6.08263 3.38664 6.74396 3.3653 7.31996 3.34397L14.2 20.528L13.496 21.104L20.184 3.43997C20.504 3.43997 20.8346 3.43997 21.176 3.43997C21.5386 3.43997 21.88 3.43997 22.2 3.43997C23.0746 3.43997 23.9386 3.4293 24.792 3.40797C25.6453 3.38664 26.3493 3.3653 26.904 3.34397Z" fill="white"/>
<path d="M32.8937 1.29597C33.6617 1.29597 34.291 1.5093 34.7817 1.93597C35.2724 2.36264 35.5177 2.92797 35.5177 3.63197C35.5177 4.33597 35.2724 4.9013 34.7817 5.32797C34.291 5.75464 33.6617 5.96797 32.8937 5.96797C32.1257 5.96797 31.4964 5.75464 31.0057 5.32797C30.515 4.9013 30.2697 4.33597 30.2697 3.63197C30.2697 2.92797 30.515 2.36264 31.0057 1.93597C31.4964 1.5093 32.1257 1.29597 32.8937 1.29597ZM35.1337 9.10397V23.024C35.1337 23.92 35.2937 24.528 35.6137 24.848C35.955 25.168 36.5204 25.328 37.3097 25.328V26C36.9257 25.9786 36.339 25.9573 35.5497 25.936C34.7604 25.8933 33.9604 25.872 33.1497 25.872C32.3604 25.872 31.5604 25.8933 30.7497 25.936C29.939 25.9573 29.331 25.9786 28.9257 26V25.328C29.715 25.328 30.2697 25.168 30.5897 24.848C30.931 24.528 31.1017 23.92 31.1017 23.024V12.976C31.1017 11.9946 30.9417 11.28 30.6217 10.832C30.323 10.3626 29.7577 10.128 28.9257 10.128V9.45597C29.6084 9.51997 30.2697 9.55197 30.9097 9.55197C31.699 9.55197 32.4457 9.51997 33.1497 9.45597C33.875 9.37064 34.5364 9.2533 35.1337 9.10397Z" fill="white"/>
<path d="M49.3935 9.00797C50.0548 9.00797 50.5988 9.14664 51.0255 9.42397C51.4735 9.7013 51.8041 10.0533 52.0175 10.48C52.2308 10.9066 52.3375 11.3546 52.3375 11.824C52.3375 12.528 52.1241 13.1146 51.6975 13.584C51.2921 14.0533 50.7481 14.288 50.0655 14.288C49.4255 14.288 48.9028 14.1173 48.4975 13.776C48.0921 13.4346 47.8895 12.9653 47.8895 12.368C47.8895 11.8346 48.0175 11.3866 48.2735 11.024C48.5508 10.6613 48.8601 10.3733 49.2015 10.16C48.9668 10.032 48.7001 9.9893 48.4015 10.032C47.8895 10.0746 47.4201 10.256 46.9935 10.576C46.5668 10.896 46.2041 11.2906 45.9055 11.76C45.6068 12.2293 45.3721 12.7306 45.2015 13.264C45.0521 13.7973 44.9775 14.3093 44.9775 14.8V22.704C44.9775 23.7493 45.2441 24.4533 45.7775 24.816C46.3108 25.1573 47.0895 25.328 48.1135 25.328V26C47.6228 25.9786 46.9081 25.9573 45.9695 25.936C45.0521 25.8933 44.0921 25.872 43.0895 25.872C42.2575 25.872 41.4255 25.8933 40.5935 25.936C39.7828 25.9573 39.1748 25.9786 38.7695 26V25.328C39.5588 25.328 40.1135 25.168 40.4335 24.848C40.7748 24.528 40.9455 23.92 40.9455 23.024V12.944C40.9455 11.984 40.7855 11.28 40.4655 10.832C40.1668 10.3626 39.6015 10.128 38.7695 10.128V9.45597C39.4521 9.51997 40.1135 9.55197 40.7535 9.55197C41.5428 9.55197 42.2895 9.51997 42.9935 9.45597C43.7188 9.37064 44.3801 9.2533 44.9775 9.10397V12.432C45.2335 11.8346 45.5641 11.28 45.9695 10.768C46.3961 10.256 46.8975 9.83997 47.4735 9.51997C48.0708 9.17864 48.7108 9.00797 49.3935 9.00797Z" fill="white"/>
<path d="M57.905 26.224C56.9876 26.224 56.209 26.0533 55.569 25.712C54.929 25.3493 54.449 24.8693 54.129 24.272C53.809 23.6533 53.649 22.9706 53.649 22.224C53.649 21.3066 53.8623 20.56 54.289 19.984C54.7156 19.3866 55.2596 18.9173 55.921 18.576C56.6036 18.2133 57.3183 17.9146 58.065 17.68C58.8116 17.424 59.5156 17.1893 60.177 16.976C60.8383 16.7413 61.3823 16.4746 61.809 16.176C62.2356 15.8773 62.449 15.4826 62.449 14.992V12.656C62.449 11.9733 62.3423 11.4186 62.129 10.992C61.937 10.544 61.6383 10.2133 61.233 9.99997C60.849 9.7653 60.3583 9.64797 59.761 9.64797C59.313 9.64797 58.8436 9.71197 58.353 9.83997C57.8623 9.96797 57.457 10.2133 57.137 10.576C57.6916 10.7253 58.1183 11.0026 58.417 11.408C58.737 11.8133 58.897 12.304 58.897 12.88C58.897 13.5413 58.673 14.064 58.225 14.448C57.7983 14.8106 57.2543 14.992 56.593 14.992C55.889 14.992 55.3556 14.768 54.993 14.32C54.6303 13.872 54.449 13.3493 54.449 12.752C54.449 12.1546 54.5983 11.664 54.897 11.28C55.1956 10.8746 55.6116 10.512 56.145 10.192C56.6783 9.8293 57.361 9.5413 58.193 9.32797C59.025 9.11464 59.9316 9.00797 60.913 9.00797C61.8516 9.00797 62.6836 9.11464 63.409 9.32797C64.1343 9.51997 64.753 9.87197 65.265 10.384C65.777 10.8746 66.1076 11.4826 66.257 12.208C66.4063 12.9333 66.481 13.8186 66.481 14.864V23.632C66.481 24.1653 66.545 24.5493 66.673 24.784C66.801 24.9973 67.0036 25.104 67.281 25.104C67.4943 25.104 67.697 25.0506 67.889 24.944C68.081 24.8373 68.2943 24.688 68.529 24.496L68.881 25.04C68.4116 25.4026 67.921 25.6906 67.409 25.904C66.897 26.1173 66.2783 26.224 65.553 26.224C64.8063 26.224 64.209 26.1173 63.761 25.904C63.3343 25.6906 63.0143 25.3813 62.801 24.976C62.609 24.5706 62.5023 24.0906 62.481 23.536C61.969 24.3893 61.3396 25.0506 60.593 25.52C59.8463 25.9893 58.9503 26.224 57.905 26.224ZM59.825 24.432C60.337 24.432 60.8063 24.2933 61.233 24.016C61.681 23.7386 62.0863 23.3226 62.449 22.768V16.304C62.2356 16.624 61.9263 16.912 61.521 17.168C61.137 17.424 60.721 17.68 60.273 17.936C59.825 18.192 59.3983 18.4906 58.993 18.832C58.609 19.152 58.2783 19.5573 58.001 20.048C57.745 20.5173 57.617 21.1253 57.617 21.872C57.617 22.704 57.8196 23.344 58.225 23.792C58.6303 24.2186 59.1636 24.432 59.825 24.432Z" fill="white"/>
<path d="M75.8167 0.94397V23.024C75.8167 23.92 75.9767 24.528 76.2967 24.848C76.638 25.168 77.2034 25.328 77.9927 25.328V26C77.6087 25.9786 77.022 25.9573 76.2327 25.936C75.4647 25.8933 74.6754 25.872 73.8647 25.872C73.0754 25.872 72.2647 25.8933 71.4327 25.936C70.622 25.9573 70.014 25.9786 69.6087 26V25.328C70.398 25.328 70.9527 25.168 71.2727 24.848C71.614 24.528 71.7847 23.92 71.7847 23.024V4.78397C71.7847 3.82397 71.6354 3.11997 71.3367 2.67197C71.038 2.20264 70.462 1.96797 69.6087 1.96797V1.29597C70.2914 1.35997 70.9527 1.39197 71.5927 1.39197C72.4034 1.39197 73.1607 1.35997 73.8647 1.29597C74.5687 1.21064 75.2194 1.0933 75.8167 0.94397Z" fill="white"/>
<path d="M87.3037 9.00797C88.7757 9.00797 90.077 9.30664 91.2077 9.90397C92.3597 10.48 93.2664 11.408 93.9277 12.688C94.6104 13.968 94.9517 15.6533 94.9517 17.744C94.9517 19.8346 94.6104 21.52 93.9277 22.8C93.2664 24.08 92.3597 25.008 91.2077 25.584C90.077 26.16 88.7757 26.448 87.3037 26.448C85.8317 26.448 84.5197 26.16 83.3677 25.584C82.2157 25.008 81.309 24.08 80.6477 22.8C79.9864 21.52 79.6557 19.8346 79.6557 17.744C79.6557 15.6533 79.9864 13.968 80.6477 12.688C81.309 11.408 82.2157 10.48 83.3677 9.90397C84.5197 9.30664 85.8317 9.00797 87.3037 9.00797ZM87.3037 9.64797C86.301 9.64797 85.4797 10.288 84.8397 11.568C84.221 12.8266 83.9117 14.8853 83.9117 17.744C83.9117 20.6026 84.221 22.6613 84.8397 23.92C85.4797 25.1786 86.301 25.808 87.3037 25.808C88.285 25.808 89.0957 25.1786 89.7357 23.92C90.3757 22.6613 90.6957 20.6026 90.6957 17.744C90.6957 14.8853 90.3757 12.8266 89.7357 11.568C89.0957 10.288 88.285 9.64797 87.3037 9.64797Z" fill="white"/>
<path d="M112.507 9.10397V22.544C112.507 23.504 112.667 24.2186 112.987 24.688C113.307 25.136 113.872 25.36 114.683 25.36V26.032C114.021 25.968 113.36 25.936 112.699 25.936C111.909 25.936 111.152 25.968 110.427 26.032C109.723 26.096 109.072 26.2133 108.475 26.384V23.184C107.941 24.3573 107.205 25.2 106.267 25.712C105.349 26.2026 104.357 26.448 103.291 26.448C102.459 26.448 101.755 26.3306 101.179 26.096C100.624 25.8826 100.176 25.584 99.8347 25.2C99.472 24.7946 99.216 24.2613 99.0667 23.6C98.9174 22.9386 98.8427 22.0853 98.8427 21.04V12.944C98.8427 11.984 98.6827 11.28 98.3627 10.832C98.064 10.3626 97.4987 10.128 96.6667 10.128V9.45597C97.3494 9.51997 98.0107 9.55197 98.6507 9.55197C99.44 9.55197 100.187 9.51997 100.891 9.45597C101.616 9.37064 102.277 9.2533 102.875 9.10397V22.16C102.875 22.736 102.917 23.248 103.003 23.696C103.109 24.144 103.312 24.5066 103.611 24.784C103.909 25.04 104.357 25.168 104.955 25.168C105.616 25.168 106.213 24.976 106.747 24.592C107.28 24.208 107.696 23.6853 107.995 23.024C108.315 22.3626 108.475 21.616 108.475 20.784V12.944C108.475 11.984 108.315 11.28 107.995 10.832C107.696 10.3626 107.131 10.128 106.299 10.128V9.45597C106.981 9.51997 107.643 9.55197 108.283 9.55197C109.072 9.55197 109.819 9.51997 110.523 9.45597C111.248 9.37064 111.909 9.2533 112.507 9.10397Z" fill="white"/>
</svg>
