<svg width="115" height="27" viewBox="0 0 115 27" fill="none" xmlns="http://www.w3.org/2000/svg">
<path d="M26.904 3.344V3.984C26.2213 4.00533 25.6987 4.09067 25.336 4.24C24.9733 4.368 24.728 4.624 24.6 5.008C24.4933 5.37067 24.44 5.94666 24.44 6.736L24.44 22.608C24.44 23.376 24.504 23.952 24.632 24.336C24.76 24.72 24.9947 24.976 25.336 25.104C25.6987 25.232 26.2213 25.3173 26.904 25.36V26C26.3493 25.9573 25.6453 25.936 24.792 25.936C23.9387 25.9147 23.0747 25.904 22.2 25.904C21.24 25.904 20.3333 25.9147 19.48 25.936C18.648 25.936 17.976 25.9573 17.464 26V25.36C18.1893 25.3173 18.7333 25.232 19.096 25.104C19.48 24.976 19.736 24.72 19.864 24.336C19.992 23.952 20.056 23.376 20.056 22.608L20.056 5.2L20.28 5.232L12.344 26.096H11.832L3.384 5.392L3.384 21.264C3.384 22.288 3.448 23.088 3.576 23.664C3.704 24.2187 3.98133 24.624 4.408 24.88C4.856 25.1147 5.528 25.2747 6.424 25.36L6.424 26C6.01867 25.9573 5.496 25.936 4.856 25.936C4.216 25.9147 3.608 25.904 3.032 25.904C2.52 25.904 1.99733 25.9147 1.464 25.936C0.952 25.936 0.525333 25.9573 0.184 26V25.36C0.888 25.2747 1.41067 25.1147 1.752 24.88C2.11467 24.6453 2.34933 24.2613 2.456 23.728C2.584 23.1947 2.648 22.4587 2.648 21.52L2.648 6.736C2.648 5.94666 2.584 5.37067 2.456 5.008C2.34933 4.624 2.11467 4.368 1.752 4.24C1.41067 4.09067 0.888 4.00533 0.184 3.984L0.184 3.344C0.525333 3.36533 0.952 3.38667 1.464 3.408C1.99733 3.42933 2.52 3.44 3.032 3.44C3.82133 3.44 4.58933 3.42933 5.336 3.408C6.08267 3.38667 6.744 3.36533 7.32 3.344L14.2 20.528L13.496 21.104L20.184 3.44C20.504 3.44 20.8347 3.44 21.176 3.44C21.5387 3.44 21.88 3.44 22.2 3.44C23.0747 3.44 23.9387 3.42933 24.792 3.408C25.6453 3.38667 26.3493 3.36533 26.904 3.344ZM32.8938 1.296C33.6618 1.296 34.2911 1.50933 34.7818 1.936C35.2724 2.36267 35.5178 2.928 35.5178 3.632C35.5178 4.336 35.2724 4.90133 34.7818 5.328C34.2911 5.75467 33.6618 5.968 32.8938 5.968C32.1258 5.968 31.4964 5.75467 31.0058 5.328C30.5151 4.90133 30.2698 4.336 30.2698 3.632C30.2698 2.928 30.5151 2.36267 31.0058 1.936C31.4964 1.50933 32.1258 1.296 32.8938 1.296ZM35.1338 9.104V23.024C35.1338 23.92 35.2938 24.528 35.6138 24.848C35.9551 25.168 36.5204 25.328 37.3098 25.328V26C36.9258 25.9787 36.3391 25.9573 35.5498 25.936C34.7604 25.8933 33.9604 25.872 33.1498 25.872C32.3604 25.872 31.5604 25.8933 30.7498 25.936C29.9391 25.9573 29.3311 25.9787 28.9258 26V25.328C29.7151 25.328 30.2698 25.168 30.5898 24.848C30.9311 24.528 31.1018 23.92 31.1018 23.024V12.976C31.1018 11.9947 30.9418 11.28 30.6218 10.832C30.3231 10.3627 29.7578 10.128 28.9258 10.128V9.456C29.6084 9.52 30.2698 9.552 30.9098 9.552C31.6991 9.552 32.4458 9.52 33.1498 9.456C33.8751 9.37067 34.5364 9.25333 35.1338 9.104ZM49.3935 9.008C50.0548 9.008 50.5988 9.14667 51.0255 9.424C51.4735 9.70133 51.8042 10.0533 52.0175 10.48C52.2308 10.9067 52.3375 11.3547 52.3375 11.824C52.3375 12.528 52.1242 13.1147 51.6975 13.584C51.2922 14.0533 50.7482 14.288 50.0655 14.288C49.4255 14.288 48.9028 14.1173 48.4975 13.776C48.0922 13.4347 47.8895 12.9653 47.8895 12.368C47.8895 11.8347 48.0175 11.3867 48.2735 11.024C48.5508 10.6613 48.8602 10.3733 49.2015 10.16C48.9668 10.032 48.7002 9.98933 48.4015 10.032C47.8895 10.0747 47.4202 10.256 46.9935 10.576C46.5668 10.896 46.2042 11.2907 45.9055 11.76C45.6068 12.2293 45.3722 12.7307 45.2015 13.264C45.0522 13.7973 44.9775 14.3093 44.9775 14.8V22.704C44.9775 23.7493 45.2442 24.4533 45.7775 24.816C46.3108 25.1573 47.0895 25.328 48.1135 25.328V26C47.6228 25.9787 46.9082 25.9573 45.9695 25.936C45.0522 25.8933 44.0922 25.872 43.0895 25.872C42.2575 25.872 41.4255 25.8933 40.5935 25.936C39.7828 25.9573 39.1748 25.9787 38.7695 26V25.328C39.5588 25.328 40.1135 25.168 40.4335 24.848C40.7748 24.528 40.9455 23.92 40.9455 23.024V12.944C40.9455 11.984 40.7855 11.28 40.4655 10.832C40.1668 10.3627 39.6015 10.128 38.7695 10.128V9.456C39.4522 9.52 40.1135 9.552 40.7535 9.552C41.5428 9.552 42.2895 9.52 42.9935 9.456C43.7188 9.37067 44.3802 9.25333 44.9775 9.104V12.432C45.2335 11.8347 45.5642 11.28 45.9695 10.768C46.3962 10.256 46.8975 9.84 47.4735 9.52C48.0708 9.17867 48.7108 9.008 49.3935 9.008ZM57.905 26.224C56.9877 26.224 56.209 26.0533 55.569 25.712C54.929 25.3493 54.449 24.8693 54.129 24.272C53.809 23.6533 53.649 22.9707 53.649 22.224C53.649 21.3067 53.8623 20.56 54.289 19.984C54.7157 19.3867 55.2597 18.9173 55.921 18.576C56.6037 18.2133 57.3183 17.9147 58.065 17.68C58.8117 17.424 59.5157 17.1893 60.177 16.976C60.8383 16.7413 61.3823 16.4747 61.809 16.176C62.2357 15.8773 62.449 15.4827 62.449 14.992V12.656C62.449 11.9733 62.3423 11.4187 62.129 10.992C61.937 10.544 61.6383 10.2133 61.233 10C60.849 9.76533 60.3583 9.648 59.761 9.648C59.313 9.648 58.8437 9.712 58.353 9.84C57.8623 9.968 57.457 10.2133 57.137 10.576C57.6917 10.7253 58.1183 11.0027 58.417 11.408C58.737 11.8133 58.897 12.304 58.897 12.88C58.897 13.5413 58.673 14.064 58.225 14.448C57.7983 14.8107 57.2543 14.992 56.593 14.992C55.889 14.992 55.3557 14.768 54.993 14.32C54.6303 13.872 54.449 13.3493 54.449 12.752C54.449 12.1547 54.5983 11.664 54.897 11.28C55.1957 10.8747 55.6117 10.512 56.145 10.192C56.6783 9.82933 57.361 9.54133 58.193 9.328C59.025 9.11467 59.9317 9.008 60.913 9.008C61.8517 9.008 62.6837 9.11467 63.409 9.328C64.1343 9.52 64.753 9.872 65.265 10.384C65.777 10.8747 66.1077 11.4827 66.257 12.208C66.4063 12.9333 66.481 13.8187 66.481 14.864V23.632C66.481 24.1653 66.545 24.5493 66.673 24.784C66.801 24.9973 67.0037 25.104 67.281 25.104C67.4943 25.104 67.697 25.0507 67.889 24.944C68.081 24.8373 68.2943 24.688 68.529 24.496L68.881 25.04C68.4117 25.4027 67.921 25.6907 67.409 25.904C66.897 26.1173 66.2783 26.224 65.553 26.224C64.8063 26.224 64.209 26.1173 63.761 25.904C63.3343 25.6907 63.0143 25.3813 62.801 24.976C62.609 24.5707 62.5023 24.0907 62.481 23.536C61.969 24.3893 61.3397 25.0507 60.593 25.52C59.8463 25.9893 58.9503 26.224 57.905 26.224ZM59.825 24.432C60.337 24.432 60.8063 24.2933 61.233 24.016C61.681 23.7387 62.0863 23.3227 62.449 22.768V16.304C62.2357 16.624 61.9263 16.912 61.521 17.168C61.137 17.424 60.721 17.68 60.273 17.936C59.825 18.192 59.3983 18.4907 58.993 18.832C58.609 19.152 58.2783 19.5573 58.001 20.048C57.745 20.5173 57.617 21.1253 57.617 21.872C57.617 22.704 57.8197 23.344 58.225 23.792C58.6303 24.2187 59.1637 24.432 59.825 24.432ZM75.8168 0.943998V23.024C75.8168 23.92 75.9768 24.528 76.2968 24.848C76.6381 25.168 77.2034 25.328 77.9928 25.328V26C77.6088 25.9787 77.0221 25.9573 76.2328 25.936C75.4648 25.8933 74.6754 25.872 73.8648 25.872C73.0754 25.872 72.2648 25.8933 71.4328 25.936C70.6221 25.9573 70.0141 25.9787 69.6088 26V25.328C70.3981 25.328 70.9528 25.168 71.2728 24.848C71.6141 24.528 71.7848 23.92 71.7848 23.024V4.784C71.7848 3.824 71.6354 3.12 71.3368 2.672C71.0381 2.20267 70.4621 1.968 69.6088 1.968V1.296C70.2914 1.36 70.9528 1.392 71.5928 1.392C72.4034 1.392 73.1608 1.36 73.8648 1.296C74.5688 1.21067 75.2194 1.09333 75.8168 0.943998ZM87.3038 9.008C88.7758 9.008 90.0771 9.30667 91.2078 9.904C92.3598 10.48 93.2664 11.408 93.9278 12.688C94.6104 13.968 94.9518 15.6533 94.9518 17.744C94.9518 19.8347 94.6104 21.52 93.9278 22.8C93.2664 24.08 92.3598 25.008 91.2078 25.584C90.0771 26.16 88.7758 26.448 87.3038 26.448C85.8318 26.448 84.5198 26.16 83.3678 25.584C82.2158 25.008 81.3091 24.08 80.6478 22.8C79.9864 21.52 79.6558 19.8347 79.6558 17.744C79.6558 15.6533 79.9864 13.968 80.6478 12.688C81.3091 11.408 82.2158 10.48 83.3678 9.904C84.5198 9.30667 85.8318 9.008 87.3038 9.008ZM87.3038 9.648C86.3011 9.648 85.4798 10.288 84.8398 11.568C84.2211 12.8267 83.9118 14.8853 83.9118 17.744C83.9118 20.6027 84.2211 22.6613 84.8398 23.92C85.4798 25.1787 86.3011 25.808 87.3038 25.808C88.2851 25.808 89.0958 25.1787 89.7358 23.92C90.3758 22.6613 90.6958 20.6027 90.6958 17.744C90.6958 14.8853 90.3758 12.8267 89.7358 11.568C89.0958 10.288 88.2851 9.648 87.3038 9.648ZM112.507 9.104V22.544C112.507 23.504 112.667 24.2187 112.987 24.688C113.307 25.136 113.872 25.36 114.683 25.36V26.032C114.021 25.968 113.36 25.936 112.699 25.936C111.909 25.936 111.152 25.968 110.427 26.032C109.723 26.096 109.072 26.2133 108.475 26.384V23.184C107.941 24.3573 107.205 25.2 106.267 25.712C105.349 26.2027 104.357 26.448 103.291 26.448C102.459 26.448 101.755 26.3307 101.179 26.096C100.624 25.8827 100.176 25.584 99.8348 25.2C99.4721 24.7947 99.2161 24.2613 99.0668 23.6C98.9174 22.9387 98.8428 22.0853 98.8428 21.04V12.944C98.8428 11.984 98.6828 11.28 98.3628 10.832C98.0641 10.3627 97.4988 10.128 96.6668 10.128V9.456C97.3494 9.52 98.0108 9.552 98.6508 9.552C99.4401 9.552 100.187 9.52 100.891 9.456C101.616 9.37067 102.277 9.25333 102.875 9.104V22.16C102.875 22.736 102.917 23.248 103.003 23.696C103.109 24.144 103.312 24.5067 103.611 24.784C103.909 25.04 104.357 25.168 104.955 25.168C105.616 25.168 106.213 24.976 106.747 24.592C107.28 24.208 107.696 23.6853 107.995 23.024C108.315 22.3627 108.475 21.616 108.475 20.784V12.944C108.475 11.984 108.315 11.28 107.995 10.832C107.696 10.3627 107.131 10.128 106.299 10.128V9.456C106.981 9.52 107.643 9.552 108.283 9.552C109.072 9.552 109.819 9.52 110.523 9.456C111.248 9.37067 111.909 9.25333 112.507 9.104Z" fill="black"/>
</svg>
