<?xml version="1.0" encoding="UTF-8" standalone="no"?>

<svg
   width="1316.4956"
   height="1013.4802"
   viewBox="0 0 348.32278 268.14996"
   version="1.1"
   id="svg2603"
   xmlns="http://www.w3.org/2000/svg"
   xmlns:svg="http://www.w3.org/2000/svg">
  <defs
     id="defs2600" />
  <g
     id="layer1"
     transform="translate(-75.244543,-86.481695)">
    <path
       d="m 261.38331,327.18199 c -1.14265,1.40406 -2.30823,2.794 -3.49462,4.16278 -1.75542,2.02847 -3.55882,4.01461 -5.40985,5.95842 -0.47166,0.49741 -0.94544,0.98778 -1.4231,1.47461 -0.51118,0.52917 -1.02659,1.04775 -1.54588,1.56986 -0.59407,-0.59619 -1.18215,-1.19239 -1.766,-1.79564 -0.45297,-0.46214 -0.89958,-0.9278 -1.34408,-1.40053 -1.87396,-1.9685 -3.69817,-3.98286 -5.47229,-6.03955 -1.24037,-1.43934 -2.45816,-2.89631 -3.64843,-4.37445 -1.48767,-1.84502 -2.93547,-3.71827 -4.34199,-5.61975 -6.9663,-9.42269 -12.96035,-19.57917 -17.81951,-30.2013 -10.12649,-22.13681 -15.26223,-45.8082 -15.26223,-70.36154 0,-0.75141 0.004,-1.50636 0.0145,-2.25777 0.0625,-4.87892 0.32844,-9.72609 0.79799,-14.52739 1.71803,-17.58598 6.14962,-34.62867 13.23834,-50.86351 0.39476,-0.90664 0.8001,-1.80975 1.21144,-2.70933 1.12395,-2.45533 2.30822,-4.8895 3.55459,-7.29192 4.1282,-7.99042 8.90869,-15.66686 14.26492,-22.90939 5.02744,-6.79803 10.5791,-13.23975 16.57279,-19.22992 5.99405,5.99017 11.54536,12.43189 16.57315,19.22992 5.32483,7.2002 10.08063,14.83078 14.19402,22.77181 1.27141,2.44828 2.47861,4.92478 3.62549,7.4295 0.38841,0.85019 0.77082,1.70392 1.14477,2.55764 7.10318,16.22425 11.54924,33.24578 13.28632,50.81764 0.47166,4.79425 0.74365,9.62378 0.81244,14.48858 0.0123,0.83256 0.0183,1.66159 0.0183,2.49414 0,24.55334 -5.13574,48.22473 -15.26188,70.36154 -4.85951,10.62213 -10.85356,20.77861 -17.81951,30.2013 -1.51871,2.0567 -3.08751,4.07811 -4.6997,6.06425 z M 421.70459,149.2197 c -18.03047,0.55739 -35.95159,3.81353 -53.10364,9.71198 0.0917,0.58208 0.17639,1.16064 0.26458,1.74625 0.42333,2.89983 0.78317,5.84905 1.07597,8.79475 5.7397,-2.0567 11.59581,-3.80647 17.526,-5.2317 8.21973,-1.97555 16.61231,-3.34433 25.05428,-4.07811 0.74084,8.44197 0.85373,16.94392 0.33867,25.38236 -0.72319,11.69459 -2.65994,23.3292 -5.76439,34.58987 -6.47347,23.46678 -17.75531,44.90156 -33.53858,63.71167 -15.77764,18.80658 -34.92924,33.63736 -56.91612,44.08664 -5.41655,2.57175 -10.98444,4.86128 -16.6624,6.84742 -5.3788,1.88736 -10.85779,3.50308 -16.40064,4.83305 -2.41617,0.58209 -4.84928,1.11125 -7.29227,1.58398 33.65077,-20.47523 60.83195,-52.10529 75.35228,-92.00446 9.22056,-25.33297 12.38885,-51.39619 10.24255,-76.60217 -0.3055,-3.59127 -0.71896,-7.16139 -1.24036,-10.71386 -3.03742,-20.79625 -9.70457,-40.83756 -19.56682,-59.21022 -16.71638,6.67808 -32.40829,15.83972 -46.48412,27.20975 0.28257,0.51505 0.56303,1.02658 0.84137,1.54164 1.39841,2.58939 2.74673,5.23875 4.02449,7.90222 4.66196,-3.86645 9.53382,-7.48595 14.58242,-10.82675 7.04921,-4.66725 14.46848,-8.82297 22.14951,-12.40014 3.58387,7.67644 6.59836,15.62806 8.99795,23.73489 2.54706,8.61483 4.40866,17.43781 5.5619,26.33133 0.35101,2.70934 0.6357,5.42573 0.85372,8.14564 0.0769,0.95956 0.14569,1.91911 0.20567,2.87867 1.47073,23.28334 -1.86584,46.29856 -9.92893,68.45653 -8.39753,23.07167 -21.32013,43.55748 -38.40622,60.89651 -4.14267,4.20158 -8.51605,8.19502 -13.08911,11.95211 -4.48134,3.67594 -9.15176,7.13317 -13.98623,10.33286 -2.00484,1.32997 -4.03895,2.61408 -6.09988,3.85586 24.56744,-30.734 39.25641,-69.71242 39.25641,-112.12337 0,-4.39208 -0.15805,-8.74889 -0.46779,-13.06336 -0.3115,-4.34269 -0.77893,-8.64305 -1.39382,-12.89403 -2.52836,-17.47308 -7.56885,-34.13125 -14.74259,-49.59703 -1.51659,-3.26672 -3.12878,-6.48053 -4.8327,-9.63789 -9.96633,-18.47497 -23.07167,-35.00967 -38.60589,-48.880895 -15.56949,13.902975 -28.69776,30.480005 -38.67432,49.007895 -1.7018,3.16089 -3.30976,6.3747 -4.82424,9.64847 -7.16562,15.47637 -12.19341,32.14159 -14.7073,49.62173 -0.61101,4.26156 -1.07421,8.5725 -1.38148,12.92225 -0.30127,4.25097 -0.45508,8.54781 -0.45508,12.87286 0,42.52031 14.76551,81.59398 39.44937,112.36326 -2.19816,-1.31586 -4.36703,-2.68111 -6.50063,-4.09575 -4.68313,-3.10092 -9.21456,-6.43819 -13.56678,-9.99067 -4.72652,-3.85586 -9.23925,-7.96572 -13.50857,-12.2943 -17.08644,-17.33903 -30.00904,-37.82484 -38.40657,-60.89651 -8.06308,-22.15797 -11.39966,-45.17319 -9.92893,-68.45653 0.0603,-0.95956 0.12877,-1.91911 0.20567,-2.87867 0.21837,-2.71991 0.50306,-5.4363 0.85408,-8.14564 1.15288,-8.89352 3.01448,-17.7165 5.56154,-26.33133 2.39959,-8.10683 5.41443,-16.05845 8.99831,-23.73489 7.68067,3.57717 15.09959,7.73289 22.14915,12.40014 5.10258,3.37961 10.0263,7.04144 14.73235,10.95022 1.2753,-2.667 2.62185,-5.31283 4.01179,-7.89517 0.28046,-0.51858 0.56304,-1.03716 0.84773,-1.55575 -14.11535,-11.42647 -29.85523,-20.62691 -46.6277,-27.32616 -9.86226,18.37266 -16.52941,38.41397 -19.56683,59.21022 -0.5214,3.55247 -0.93486,7.12259 -1.24036,10.71386 -2.14595,25.20598 1.02235,51.2692 10.24255,76.60217 14.52069,39.89917 41.70151,71.52923 75.35263,92.00446 -2.44334,-0.47273 -4.87609,-1.00189 -7.29262,-1.58398 -5.54284,-1.32997 -11.01937,-2.94569 -16.39852,-4.83305 -5.68008,-1.98614 -11.24797,-4.27214 -16.66417,-6.84742 -21.98723,-10.44928 -41.13848,-25.28006 -56.91788,-44.08664 -15.78151,-18.81011 -27.065109,-40.24489 -33.536818,-63.71167 -3.103739,-11.26067 -5.042253,-22.89528 -5.762978,-34.58987 -0.517172,-8.43844 -0.405342,-16.94039 0.33655,-25.38236 8.441267,0.73378 16.834556,2.10256 25.055686,4.07811 5.92949,1.42523 11.78631,3.175 17.52671,5.2317 0.29069,-2.9457 0.65017,-5.89845 1.07597,-8.80181 0.0854,-0.58208 0.17251,-1.16064 0.26177,-1.73919 -17.15241,-5.89845 -35.07388,-9.15459 -53.103295,-9.71198 -7.072136,48.89501 5.931606,100.47818 40.187035,141.30515 28.54431,34.01837 67.01297,54.80051 107.61981,61.66909 3.84105,0.64558 7.70149,1.17122 11.57393,1.57339 4.27179,0.44097 8.55769,0.73025 12.85205,0.8643 l -0.004,-0.0317 c -0.0434,-0.0811 -0.0871,-0.16227 -0.12876,-0.24341 0.0356,0.0353 0.0709,0.067 0.1083,0.0988 0.054,0.0494 0.10795,0.0988 0.16192,0.14464 0.0395,-0.0141 0.0811,-0.0318 0.1203,-0.0459 -0.0289,0.0247 -0.0557,0.0494 -0.085,0.0776 4.35892,-0.14111 8.70938,-0.43744 13.04537,-0.889 3.7913,-0.39864 7.5685,-0.91369 11.32911,-1.54869 h 0.002 c 40.60861,-6.86506 79.07938,-27.6472 107.6311,-61.66909 34.25472,-40.82697 47.25811,-92.41014 40.18492,-141.30515"
       style="fill:#000000;fill-opacity:1;fill-rule:nonzero;stroke:none;stroke-width:0.0352778"
       id="path2598" />
  </g>
</svg>
