<svg width="100" height="100" viewBox="0 0 100 100" fill="none" xmlns="http://www.w3.org/2000/svg">
<path d="M0 15C0 6.71573 6.71573 0 15 0H85C93.2843 0 100 6.71573 100 15V85C100 93.2843 93.2843 100 85 100H15C6.71573 100 0 93.2843 0 85V15Z" fill="white"/>
<path d="M76.2143 31.688V32.968C74.8489 33.0107 73.8036 33.1813 73.0783 33.48C72.3529 33.736 71.8623 34.248 71.6063 35.016C71.3929 35.7413 71.2863 36.8933 71.2863 38.472V70.216C71.2863 71.752 71.4143 72.904 71.6703 73.672C71.9263 74.44 72.3956 74.952 73.0783 75.208C73.8036 75.464 74.8489 75.6347 76.2143 75.72V77C75.1049 76.9147 73.6969 76.872 71.9903 76.872C70.2836 76.8293 68.5556 76.808 66.8063 76.808C64.8863 76.808 63.0729 76.8293 61.3663 76.872C59.7023 76.872 58.3583 76.9147 57.3343 77V75.72C58.7849 75.6347 59.8729 75.464 60.5983 75.208C61.3663 74.952 61.8783 74.44 62.1343 73.672C62.3903 72.904 62.5183 71.752 62.5183 70.216V35.4L62.9663 35.464L47.0943 77.192H46.0703L29.1743 35.784V67.528C29.1743 69.576 29.3023 71.176 29.5583 72.328C29.8143 73.4373 30.3689 74.248 31.2223 74.76C32.1183 75.2293 33.4623 75.5493 35.2543 75.72V77C34.4436 76.9147 33.3983 76.872 32.1183 76.872C30.8383 76.8293 29.6223 76.808 28.4703 76.808C27.4463 76.808 26.4009 76.8293 25.3343 76.872C24.3103 76.872 23.4569 76.9147 22.7743 77V75.72C24.1823 75.5493 25.2276 75.2293 25.9103 74.76C26.6356 74.2907 27.1049 73.5227 27.3183 72.456C27.5743 71.3893 27.7023 69.9173 27.7023 68.04V38.472C27.7023 36.8933 27.5743 35.7413 27.3183 35.016C27.1049 34.248 26.6356 33.736 25.9103 33.48C25.2276 33.1813 24.1823 33.0107 22.7743 32.968V31.688C23.4569 31.7307 24.3103 31.7733 25.3343 31.816C26.4009 31.8587 27.4463 31.88 28.4703 31.88C30.0489 31.88 31.5849 31.8587 33.0783 31.816C34.5716 31.7733 35.8943 31.7307 37.0463 31.688L50.8063 66.056L49.3983 67.208L62.7743 31.88C63.4143 31.88 64.0756 31.88 64.7583 31.88C65.4836 31.88 66.1663 31.88 66.8063 31.88C68.5556 31.88 70.2836 31.8587 71.9903 31.816C73.6969 31.7733 75.1049 31.7307 76.2143 31.688Z" fill="black"/>
</svg>
