<svg width="99" height="99" viewBox="0 0 99 99" fill="none" xmlns="http://www.w3.org/2000/svg">
<path d="M40.9984 0L37.125 20.5054V25.0346C37.125 29.4319 33.2764 33 28.875 33C24.4736 33 20.625 29.4319 20.625 25.0305V20.5054L32.9835 0H40.9984ZM28.4089 0L16.5 20.5054V25.0346C16.5 29.4319 12.6514 33 8.25 33C3.84862 33 0 29.4319 0 25.0305V20.5054L20.1052 0H28.4089ZM99 25.0305C99 29.4319 95.1514 33 90.75 33C86.3486 33 82.5 29.1514 82.5 24.75V20.2207L70.5911 0H78.8989L99 20.5054V25.0305ZM57.75 20.2125V24.7418C57.75 29.139 53.9014 33 49.5 33C45.0986 33 41.25 29.1514 41.25 24.75V20.2207L45.5689 0H53.427L57.75 20.2125ZM66.0165 0L78.3626 20.6332V25.1625C78.3668 29.5639 74.5264 33 70.125 33C65.7236 33 61.875 29.1514 61.875 24.75V20.2207L58.0016 0H66.0165V0ZM86.625 49.5V90.75H12.375V49.5H86.625ZM94.875 41.25H4.125V99H94.875V41.25ZM73.2188 74.25H25.7812L16.5 86.625H82.5L73.2188 74.25Z" fill="#EF4F29"/>
</svg>
