<svg width="100" height="99" viewBox="0 0 100 99" fill="none" xmlns="http://www.w3.org/2000/svg">
<path fill-rule="evenodd" clip-rule="evenodd" d="M16.0333 78.375H12.5C9.18333 78.375 6.00417 77.0715 3.6625 74.7491C1.31667 72.4309 0 69.2835 0 66V53.625C0 24.0281 22.4042 0 50 0C77.5958 0 100 24.0281 100 53.625V66C100 69.2835 98.6833 72.4309 96.3375 74.7491C93.9958 77.0715 90.8167 78.375 87.5 78.375H83.9667C72.7583 97.4861 55.2 99 50 99C44.8 99 27.2417 97.4861 16.0333 78.375ZM83.3333 54.1365C80.8292 55.11 78.0458 53.394 78.0458 50.8489C78.0458 49.5949 77.9542 48.3326 77.825 47.0745C70.4875 46.0267 62.75 39.1297 62.4125 31.7171C56.9333 39.9878 43.5583 48.9184 33.0625 48.9184C37.5875 46.035 40.725 37.4797 40.9917 34.4479C38.5708 38.9524 28.9167 47.3839 22.0292 48.8318L21.9542 50.8489C21.9542 53.4022 19.1667 55.1059 16.6667 54.1365V69.6919C17.8625 70.7479 19.3 71.6059 21.0042 72.1421C21.9417 72.4391 22.7208 73.0661 23.175 73.8911C32.3667 90.5809 45.7833 90.75 50 90.75C53.8708 90.75 65.4958 90.6056 74.4875 77.6779C70.025 79.464 65.05 80.1694 58.825 80.3715C57.2833 82.8465 53.9083 84.5625 50 84.5625C44.6333 84.5625 40.2792 81.3285 40.2792 77.3438C40.2792 73.359 44.6333 70.125 50 70.125C53.8875 70.125 57.2417 71.8204 58.8 74.2706C66.7167 74.1634 76.8667 72.8929 83.3333 63.36V54.1365ZM37.5 51.5625C40.3583 51.5625 42.6792 54.3345 42.6792 57.75C42.6792 61.1655 40.3583 63.9375 37.5 63.9375C34.6417 63.9375 32.3208 61.1655 32.3208 57.75C32.3208 54.3345 34.6417 51.5625 37.5 51.5625ZM62.5 51.5625C65.3583 51.5625 67.6792 54.3345 67.6792 57.75C67.6792 61.1655 65.3583 63.9375 62.5 63.9375C59.6417 63.9375 57.3208 61.1655 57.3208 57.75C57.3208 54.3345 59.6417 51.5625 62.5 51.5625ZM85.325 45.375H90.9792C87.4125 24.2633 70.4083 8.25 50 8.25C29.5917 8.25 12.5875 24.2633 9.02083 45.375H14.675C16.8417 28.7801 28.8875 13.5218 50 13.5218C71.1125 13.5218 83.1583 28.7801 85.325 45.375Z" fill="#EF4F29"/>
</svg>
