<svg width="169" height="30" viewBox="0 0 169 30" fill="none" xmlns="http://www.w3.org/2000/svg">
<path fill-rule="evenodd" clip-rule="evenodd" d="M10.4484 17.9601H18.0204L15.2185 11.7515C15.067 11.2971 14.9156 10.8426 14.7641 10.313C14.6126 9.85853 14.3859 9.2526 14.2344 8.64668C14.0819 9.17634 13.9315 9.78226 13.7789 10.313C13.5522 10.8426 13.4008 11.2971 13.2493 11.7515L10.4484 17.9601ZM22.7142 28.7111L19.6104 21.6698H8.78216L5.60211 28.7111H0.983521L14.1582 0.243164L27.408 28.7111H22.7142ZM57.5422 29.7704L45.3527 1.37874H49.9713L56.0285 15.9167C56.4066 16.7493 56.7096 17.5057 56.9373 18.2631C57.164 18.9442 57.3918 19.6264 57.5433 20.3076C57.6947 19.6264 57.9214 18.9442 58.1492 18.1879C58.3769 17.4315 58.6788 16.6741 58.9818 15.9167L65.1142 1.37874H69.7327L57.5422 29.7704ZM114.707 15.083C114.707 13.7197 114.478 12.3564 113.947 11.1456C113.419 9.85852 112.738 8.79816 111.751 7.81405C110.844 6.82995 109.784 6.14777 108.572 5.61811C107.361 5.08845 106.072 4.86071 104.785 4.86071C103.424 4.86071 102.137 5.08845 100.925 5.61811C99.7134 6.07255 98.6541 6.82995 97.6689 7.81405C96.7611 8.79816 96.0037 9.85852 95.473 11.1456C95.0196 12.3564 94.7918 13.7197 94.7918 15.083C94.7918 16.4464 95.0206 17.7313 95.473 19.0194C96.0037 20.2313 96.76 21.3679 97.6689 22.2758C98.6541 23.2588 99.7134 24.0162 100.925 24.5469C102.137 25.0024 103.425 25.3043 104.785 25.3043C106.072 25.3043 107.361 25.0024 108.572 24.5469C109.709 24.0162 110.844 23.2599 111.751 22.2758C112.737 21.3679 113.419 20.2313 113.947 19.0194C114.478 17.7313 114.707 16.4464 114.707 15.083ZM119.324 15.083C119.324 17.0502 118.945 18.868 118.265 20.6105C117.488 22.327 116.411 23.8909 115.084 25.2281C113.645 26.5914 112.056 27.5744 110.314 28.3319C108.553 29.0252 106.679 29.3851 104.786 29.3933C102.744 29.3933 100.926 29.014 99.1075 28.3319C97.367 27.5744 95.777 26.5914 94.4147 25.2281C92.9762 23.8647 91.9147 22.351 91.2336 20.6105C90.474 18.8673 90.0876 16.9845 90.0991 15.083C90.0991 13.1138 90.4762 11.296 91.2336 9.55451C91.9147 7.81301 92.9762 6.29925 94.4147 4.93697C95.778 3.57364 97.367 2.51432 99.1075 1.83214C100.925 1.07474 102.743 0.77282 104.786 0.77282C106.679 0.77282 108.573 1.07578 110.314 1.83214C112.132 2.51328 113.645 3.57364 115.084 4.93697C116.447 6.29925 117.506 7.81406 118.265 9.55451C118.964 11.314 119.323 13.1898 119.324 15.083ZM143.932 28.7111V0.243164L161.345 16.975C161.801 17.4305 162.255 17.9601 162.784 18.4908C163.239 19.0194 163.769 19.6254 164.299 20.3065V1.37874H168.386V29.7704L150.669 12.7356C150.216 12.2812 149.762 11.8278 149.306 11.2971C148.853 10.7674 148.473 10.2377 148.021 9.70809V28.7121H143.932V28.7111Z" fill="#A0A0A0" fill-opacity="0.6"/>
</svg>
