<svg width="181" height="120" viewBox="0 0 181 120" fill="none" xmlns="http://www.w3.org/2000/svg">
<path d="M12.9468 119.991C12.8698 119.982 12.6091 119.955 12.3673 119.93C10.1601 119.708 7.80402 118.805 5.95192 117.469C3.17507 115.468 1.21826 112.553 0.402052 109.202C-0.0316887 107.422 -0.117893 105.427 0.159504 103.592C0.903294 98.6723 4.15002 94.4582 8.65388 92.5666C9.7779 92.0946 10.8934 91.7961 12.2074 91.6157C12.9358 91.5158 14.7097 91.5153 15.4446 91.6149C17.0029 91.826 18.3238 92.2195 19.6809 92.877C21.1741 93.6004 22.2076 94.3454 23.4584 95.6C24.5519 96.6969 25.2272 97.6098 26.0101 99.05L26.1766 99.3564L25.5864 99.7935C24.7733 100.396 22.8662 101.758 22.245 102.181L21.7319 102.53L21.5208 102.07C21.2599 101.503 21.0741 101.166 20.7732 100.716C19.5711 98.9183 17.6541 97.6342 15.5645 97.2271C14.4588 97.0117 13.0976 97.0357 12.0076 97.2898C10.863 97.5566 9.62003 98.1552 8.6705 98.8969C8.28776 99.1959 7.58333 99.8954 7.27341 100.284C5.60107 102.383 4.98509 105.056 5.55862 107.726C5.75721 108.651 6.2712 109.859 6.80741 110.661C8.22657 112.784 10.4019 114.144 12.8658 114.449C13.3014 114.503 14.3506 114.503 14.7862 114.449C16.9683 114.179 18.9845 113.044 20.3622 111.31C20.7679 110.799 21.0506 110.357 21.3731 109.729C21.5144 109.454 21.6418 109.229 21.6563 109.229C21.6707 109.229 22.6753 109.938 23.8887 110.806L26.095 112.384L25.8714 112.807C25.4074 113.686 24.6093 114.79 23.8659 115.582C22.5994 116.932 21.3658 117.849 19.7608 118.634C18.3745 119.312 16.9056 119.745 15.3446 119.934C14.9947 119.977 13.1956 120.019 12.9468 119.991ZM31.8103 105.627V91.8003H37.1656V101.725H51.1534V91.8003H56.5087V119.454H51.1534V107.288H37.1656V119.454H31.8103V105.627ZM61.9192 117.002C62.5161 115.654 65.2701 109.432 68.0393 103.176L73.0742 91.8004L76.8309 91.8008L80.5876 91.8012L86.6738 105.457C90.0213 112.968 92.7944 119.19 92.8365 119.283L92.9129 119.454H86.5005L85.2625 116.712L84.0245 113.971L76.8587 113.981L69.6929 113.991L68.4688 116.722L67.2447 119.454H60.8337L61.9192 117.002ZM81.7595 108.393C81.737 108.295 76.8717 97.4052 76.8509 97.4055C76.836 97.4057 72.2155 108.204 72.1417 108.411C72.1335 108.434 73.9811 108.448 76.9504 108.448C81.0521 108.448 81.7705 108.44 81.7595 108.393ZM97.2331 105.627V91.8003L101 91.8012L104.767 91.802L110.661 100.093L116.556 108.383L116.566 100.092L116.576 91.8003H121.971V119.454L119.807 119.444L117.642 119.434L110.165 109.04C106.053 103.324 102.675 98.646 102.658 98.6451C102.642 98.6443 102.628 103.326 102.628 109.049V119.454H97.2331V105.627ZM131.723 105.627V91.8003H151.026V97.363H137.118V102.886H149.987V108.448H137.118V113.971H153.024V119.454H131.723V105.627ZM160.578 105.627V91.8003H165.973V113.971H181V119.454H160.578V105.627ZM68.1199 84.7674C62.3555 84.5004 55.9364 82.7478 50.7615 80.028C46.7887 77.9399 43.6401 75.6034 40.3415 72.2953C37.758 69.7044 35.8519 67.3177 34.2385 64.6535L33.5322 63.4871L34.5342 62.9549C36.4867 61.918 45.3873 57.3542 45.4571 57.3542C45.4962 57.3542 45.8639 57.8554 46.2743 58.468C50.9127 65.3907 58.1692 69.8941 66.6609 71.1198C68.1454 71.3341 72.6094 71.2999 74.226 71.0619C76.0247 70.7971 78.1823 70.3059 79.5527 69.8492C79.6419 69.8195 79.4715 69.5424 79.0794 69.0797C76.0441 65.4969 73.2771 60.5794 71.7205 56.0015C68.9046 47.7205 68.7042 38.8315 71.145 30.4795C72.6606 25.2931 75.2691 20.259 78.5726 16.1451C79.0647 15.5322 79.4675 14.9914 79.4675 14.9435C79.4675 14.7802 76.8888 14.0929 75.1986 13.8056C72.5874 13.3619 68.4996 13.3068 66.1397 13.6837C62.1689 14.3178 58.1386 15.807 54.9892 17.8036C51.4796 20.0287 48.5529 22.8881 46.2174 26.3738L45.1862 27.9129L43.8735 27.2229C43.1516 26.8434 40.4697 25.4516 37.9138 24.1302C35.3579 22.8089 33.2588 21.7207 33.2491 21.7121C33.2085 21.6762 34.8086 19.1277 35.4672 18.1794C37.467 15.3002 41.0181 11.487 43.6416 9.40161C50.5019 3.94861 58.1286 0.877543 66.715 0.110576C68.3077 -0.0317315 72.2572 -0.0329721 73.7937 0.108295C79.2449 0.609415 83.9176 1.93297 88.7452 4.34304L91.0524 5.49487L91.8253 5.05446C93.0734 4.34328 95.2909 3.31715 96.9751 2.6714C101.7 0.859694 106.459 -0.00267761 111.717 -0.000116382C115.389 0.00168448 118.452 0.362937 121.777 1.18633C129.29 3.0465 135.696 6.61404 141.216 12.011C144.208 14.9369 146.554 17.9242 148.447 21.2224L148.734 21.7223L144.064 24.1349C141.495 25.4619 138.808 26.855 138.092 27.2306L136.792 27.9138L135.808 26.4284C130.956 19.0994 123.02 14.328 114.333 13.5175C111.761 13.2775 107.942 13.4985 105.621 14.0216C104.426 14.2908 102.487 14.8457 102.487 14.9181C102.488 14.9559 102.805 15.3765 103.192 15.8527C108.171 21.9692 111.279 29.425 112.283 37.6586C112.523 39.6238 112.555 44.6411 112.34 46.5866C111.433 54.8023 108.331 62.3842 103.379 68.4879C102.256 69.8716 102.304 69.7759 102.664 69.9152C102.834 69.981 103.63 70.2014 104.432 70.4049C108.51 71.4397 112.901 71.5859 117.023 70.8242C124.52 69.4389 131.272 64.9989 135.615 58.5988C136.019 58.0036 136.383 57.4767 136.425 57.4279C136.467 57.3791 137.468 57.8244 138.65 58.4176C140.991 59.5925 148.323 63.3919 148.401 63.4707C148.532 63.6018 146.196 67.0753 144.763 68.8795C143.406 70.5876 139.85 74.1445 138.151 75.4928C132.01 80.3653 125.12 83.3445 117.53 84.4082C108.816 85.6295 99.5865 83.9939 92.0774 79.8974L91.0161 79.3185L89.6998 80.0158C83.1779 83.4712 75.697 85.1183 68.1199 84.7674ZM92.4666 60.7632C96.101 56.2582 98.3687 50.7936 98.9276 45.1937C99.1152 43.3142 99.0037 39.4856 98.7116 37.7743C97.9077 33.065 96.1878 29.0286 93.4132 25.3401C92.8907 24.6456 92.1298 23.717 91.7224 23.2768L90.9815 22.4763L90.2942 23.2226C89.3881 24.2064 87.8782 26.2136 87.1171 27.4458C83.2529 33.7028 81.9912 41.3897 83.6276 48.7059C84.6574 53.3099 87.025 57.9478 90.2157 61.6112L90.9505 62.4548L91.272 62.15C91.4488 61.9825 91.9864 61.3583 92.4666 60.7632Z" fill="#A0A0A0"/>
</svg>
