<svg width="148" height="146" viewBox="0 0 148 146" fill="none" xmlns="http://www.w3.org/2000/svg">
<path fill-rule="evenodd" clip-rule="evenodd" d="M6.56673 114.418C6.4557 113.993 6.40082 113.555 6.40347 113.116H2.71312V113.495L3.52762 113.767C4.66774 114.201 4.17886 115.559 3.90796 117.023C3.52196 119.94 3.10571 122.852 2.6593 125.76C2.3875 127.66 2.27896 129.397 1.41064 129.669L0.921753 129.94V130.375H4.88391V129.831C3.96087 129.723 3.85324 129.181 3.96087 128.476L5.6975 117.729L9.06223 125.056C10.4733 128.095 11.233 129.831 11.5587 130.646H12.1013C12.9159 128.476 14.0013 126.033 15.3037 123.211L18.7232 115.722L20.7854 128.476C20.8402 129.181 20.7854 129.723 19.8086 129.831V130.375H23.7707V129.94L23.3366 129.669C22.4674 129.397 22.3597 127.66 22.0332 125.76C21.599 122.885 21.2187 119.954 20.8393 117.023C20.5675 115.559 20.0247 114.2 21.2187 113.767L21.9247 113.495V113.116H18.2881C18.3428 113.659 18.2881 114.039 18.071 114.472C17.0394 116.86 16.1173 118.976 15.249 120.768L12.3732 126.9L9.27931 120.334C8.30337 118.218 7.38032 116.264 6.56673 114.418ZM48.1931 113.116L48.2478 113.495L49.0623 113.767C50.3101 114.201 49.9854 115.559 49.9306 117.023C49.9306 119.954 49.9306 122.885 49.8221 125.76C49.8221 127.66 49.9854 129.397 49.1709 129.669L48.7367 129.94L48.7914 130.375H52.8074L52.7527 129.831C51.8296 129.723 51.5587 129.181 51.6135 128.476L51.7758 117.729L51.8844 114.365C52.5356 114.094 53.1868 113.985 53.8928 113.985C54.9235 113.985 55.6842 114.311 56.2269 114.8C57.3113 116.047 57.2575 119.684 56.1721 120.878C55.4662 121.529 54.6517 121.909 53.5125 121.909C53.3492 121.909 53.0236 121.855 52.6441 121.855L52.5347 122.234C53.4577 123.157 53.8381 123.591 54.5969 124.622L57.7446 128.693C58.0702 129.073 59.4812 130.429 60.7299 130.646C61.2188 130.702 62.1409 130.755 63.1725 130.702V130.376C61.7077 130.376 60.947 129.833 60.0248 128.585L57.5822 125.601C56.5507 124.19 55.9541 123.538 55.2482 122.345C56.5507 122.02 57.5275 121.422 58.2326 120.608C59.7521 118.709 59.535 114.638 57.2557 113.498C56.713 113.227 55.8447 113.119 54.6508 113.119C54.1619 113.119 53.5106 113.119 52.5338 113.173C51.774 113.173 51.0142 113.228 50.6339 113.228C49.9306 113.224 49.4965 113.171 48.1931 113.116ZM96.1713 121.257C96.1713 122.777 96.1157 123.536 96.1157 125.761C96.1157 127.661 96.1713 129.398 95.4106 129.67L94.9227 129.94L95.085 130.376H98.9933L98.9377 129.832C98.0147 129.724 97.8532 129.182 97.908 128.477L97.9618 121.258L97.908 114.907C97.8523 114.202 98.0147 113.66 98.9377 113.496L98.9933 112.954H95.085L94.9227 113.496L95.4106 113.66C96.1713 114.04 96.1157 115.668 96.1157 117.567C96.1157 120.063 96.1713 119.629 96.1713 121.257ZM104.366 114.799C105.071 114.311 105.397 113.767 105.397 112.954H108.545L108.328 113.496L107.731 113.66C107.296 113.823 106.32 114.365 105.722 115.017L100.675 120.063C101.38 121.311 103.823 124.188 104.854 125.599L107.297 128.583C108.22 129.831 108.981 130.375 110.445 130.375V130.7C109.305 130.754 108.437 130.7 108.002 130.645C106.753 130.428 105.289 129.071 104.963 128.691L101.815 124.62C101.11 123.59 99.7522 121.961 98.7225 120.985L98.8848 120.604C101.109 118.381 103.117 116.155 104.366 114.799ZM30.284 128.476C30.2293 129.181 30.284 129.723 31.2062 129.831V130.375H27.4073V129.94L27.8414 129.669C28.3294 129.56 28.4927 129.072 28.7645 128.42C29.2525 127.336 29.849 126.086 30.3388 124.947L33.595 117.403C34.1824 115.929 34.7431 114.445 35.2769 112.952H36.0366L41.9525 127.28C42.1696 127.605 42.2781 128.148 42.4405 128.419C42.7123 129.071 42.9294 129.559 43.3635 129.668L43.7977 129.939V130.374H39.0758V129.83C39.9988 129.722 40.1064 129.18 40.0526 128.475C39.9988 128.419 39.8903 128.094 39.7817 127.931L39.0767 126.195H31.1514L30.9891 126.52C30.8258 126.901 30.3379 128.15 30.284 128.476ZM31.5318 125.165H38.7501L35.1683 116.264L31.5318 125.165ZM113.539 128.476C113.43 129.181 113.539 129.723 114.462 129.831V130.375H110.716V129.94L111.097 129.669C111.53 129.56 111.802 129.072 112.02 128.42C112.453 127.336 113.104 126.086 113.648 124.947L116.796 117.403C117.663 115.34 118.315 113.875 118.586 112.952H119.345L125.208 127.28C125.37 127.605 125.587 128.148 125.75 128.419C125.914 129.071 126.185 129.559 126.619 129.668L127.052 129.939V130.374H122.385V129.83C123.308 129.722 123.417 129.18 123.308 128.475C123.254 128.419 123.093 128.094 123.037 127.931L122.385 126.195H114.352L114.245 126.52C114.027 126.901 113.591 128.15 113.539 128.476ZM114.84 125.165H122.004L118.368 116.264L114.84 125.165ZM80.1594 114.799C80.2151 114.148 80.1594 113.659 79.2382 113.495V112.953H82.9815V113.495L82.602 113.659C82.1141 113.822 81.9517 114.364 81.679 115.016L72.3993 132.275C71.2592 134.445 70.3909 136.942 66.9723 136.67L67.027 136.29C69.4149 136.126 71.2063 131.676 72.2369 129.669L65.5622 115.016C65.2904 114.364 65.0195 113.821 64.6939 113.659L64.1512 113.495V112.953H68.8731V113.495C67.9501 113.659 67.8963 114.2 67.9501 114.906C67.9501 115.016 68.1124 115.287 68.1672 115.45L73.5403 127.282L80.1594 114.799ZM144.147 114.799C144.255 114.148 144.093 113.659 143.224 113.495V112.953H147.077V113.495L146.589 113.659C146.154 113.822 145.937 114.364 145.666 115.016L136.44 132.275C135.3 134.445 134.377 136.942 131.013 136.67V136.29C133.401 136.126 135.083 131.676 136.223 129.669L129.549 115.016C129.278 114.364 129.005 113.821 128.626 113.659L128.138 113.495V112.953H132.859V113.495C131.936 113.659 131.827 114.2 131.936 114.906C132.044 115.016 132.153 115.287 132.208 115.45L137.526 127.282L144.147 114.799ZM50.4186 144.865C50.0383 145.191 49.6041 145.409 49.1161 145.571C48.6273 145.734 48.0846 145.787 47.4871 145.787C46.9982 145.787 46.5103 145.733 46.0761 145.571C45.642 145.409 45.2616 145.191 44.936 144.865C44.5406 144.579 44.2386 144.183 44.0677 143.726C43.8506 143.292 43.7421 142.749 43.7421 142.206C43.7421 141.121 44.1224 140.306 44.8274 139.655C45.5334 139.004 46.4556 138.678 47.5957 138.678C48.0836 138.678 48.5725 138.733 49.0067 138.842C49.4408 139.005 49.8212 139.167 50.2544 139.438L49.7665 141.066H49.6579C49.5494 140.361 49.3323 139.872 49.0067 139.547C48.6811 139.167 48.2469 139.004 47.758 139.004C47.1068 139.004 46.5641 139.275 46.1837 139.872C45.8034 140.415 45.641 141.175 45.641 142.152C45.641 143.183 45.8043 143.997 46.1837 144.594C46.5641 145.137 47.1068 145.463 47.758 145.463C48.3007 145.463 48.7349 145.246 49.1152 144.865C49.4408 144.486 49.6579 143.889 49.7665 143.075H49.875L50.4186 144.865ZM54.7064 145.463C55.3576 145.463 55.7918 145.191 56.1174 144.648C56.3883 144.104 56.5516 143.292 56.5516 142.205C56.5516 141.119 56.3892 140.306 56.1174 139.763C55.7918 139.274 55.3576 139.003 54.7064 139.003C54.1099 139.003 53.621 139.274 53.3492 139.763C53.0236 140.306 52.915 141.119 52.915 142.205C52.915 143.345 53.0236 144.159 53.3492 144.648C53.621 145.191 54.109 145.463 54.7064 145.463ZM51.0151 142.206C51.0151 141.664 51.1237 141.175 51.3408 140.742C51.5031 140.306 51.8287 139.927 52.1553 139.601C52.4963 139.308 52.8809 139.071 53.2954 138.896C53.7295 138.733 54.2175 138.679 54.7064 138.679C55.2491 138.679 55.6833 138.734 56.1174 138.896C56.5516 139.06 56.9319 139.276 57.2575 139.601C57.6379 139.927 57.9088 140.361 58.1259 140.795C58.2882 141.23 58.3968 141.665 58.3968 142.207C58.3968 142.695 58.2882 143.184 58.1259 143.618C57.9184 144.1 57.6025 144.527 57.2028 144.866C56.8944 145.175 56.5246 145.415 56.1174 145.572C55.6833 145.735 55.1944 145.788 54.7064 145.788C54.2184 145.788 53.7843 145.734 53.2954 145.572C52.8657 145.403 52.477 145.144 52.1553 144.812C51.7907 144.508 51.5102 144.116 51.3408 143.672C51.13 143.212 51.0191 142.712 51.0151 142.206ZM58.9394 145.137L59.4283 143.183H59.5916C59.7001 143.942 59.9719 144.486 60.3514 144.865C60.7317 145.246 61.2197 145.463 61.8162 145.463C62.3589 145.463 62.7393 145.299 63.0102 145.082C63.281 144.811 63.4443 144.486 63.4443 144.052C63.4443 143.78 63.3358 143.508 63.1187 143.346C62.9554 143.183 62.4674 143.021 61.7077 142.911C61.1102 142.748 60.6761 142.64 60.459 142.531C60.1881 142.423 59.971 142.315 59.8078 142.152C59.6445 141.988 59.5369 141.771 59.4274 141.555C59.3224 141.335 59.267 141.094 59.2651 140.849C59.2651 140.198 59.536 139.655 60.0796 139.275C60.6223 138.841 61.3273 138.678 62.1956 138.678C62.6307 138.678 63.064 138.678 63.4981 138.787C63.9323 138.895 64.3126 139.059 64.6921 139.222L64.257 140.849H64.0946C63.9861 140.254 63.769 139.819 63.4434 139.493C63.1178 139.168 62.7383 139.059 62.2495 139.059C61.8153 139.059 61.435 139.167 61.2188 139.383C60.947 139.601 60.7846 139.872 60.7846 140.198C60.7846 140.361 60.8394 140.47 60.8932 140.578C60.947 140.687 61.0017 140.849 61.1102 140.904C61.2735 141.066 61.7077 141.175 62.358 141.338C62.6298 141.393 62.8469 141.393 63.0092 141.447C63.6605 141.61 64.1494 141.826 64.4741 142.152C64.7997 142.423 64.9629 142.857 64.9629 143.399C64.9629 144.104 64.6921 144.703 64.1484 145.136C63.551 145.571 62.7912 145.787 61.8691 145.787C61.3264 145.787 60.7837 145.733 60.2948 145.624C59.8078 145.517 59.3198 145.354 58.9394 145.137ZM66.5919 142.531C66.5919 143.508 66.7005 144.214 66.809 144.648C66.9723 145.082 67.2432 145.353 67.6235 145.516V145.624H65.2895V145.516C65.6151 145.353 65.8869 145.028 65.9945 144.593C66.1578 144.158 66.2663 143.453 66.2663 142.53V140.468C66.2663 139.925 66.2116 139.545 66.1031 139.383C65.9945 139.166 65.8322 139.058 65.5604 138.948V138.84H67.7859C68.1662 139.6 68.4909 140.359 68.8166 141.011C69.1969 141.716 69.5216 142.368 69.8482 143.019L71.3677 138.84H73.5932V138.948C73.4309 139.003 73.2676 139.057 73.1591 139.22C73.0858 139.392 73.0488 139.576 73.0505 139.763V143.236C73.0505 144.159 73.1053 144.702 73.1591 144.973C73.2676 145.245 73.4847 145.462 73.7556 145.516V145.624H70.7165V145.516C70.9874 145.462 71.1506 145.299 71.2592 145.028C71.3677 144.811 71.3677 144.213 71.3677 143.236V139.818L69.1969 145.787H69.1422C68.7618 144.864 68.3277 143.942 67.9482 142.965C67.5141 141.988 67.0799 140.957 66.591 139.926L66.5919 142.531ZM73.9727 145.625V145.517C74.2445 145.463 74.4077 145.3 74.5154 145.028C74.6248 144.757 74.6777 144.16 74.6777 143.237V139.819C74.6777 139.547 74.6239 139.383 74.5154 139.275C74.4606 139.113 74.2983 139.059 74.0812 139.004V138.841H79.6715L80.2151 140.577L80.1065 140.632C79.7138 140.179 79.2339 139.81 78.6955 139.547C78.2075 139.331 77.5554 139.222 76.9032 139.222H76.3615V141.826C76.4153 141.826 76.5238 141.826 76.6323 141.881H76.958C77.5545 141.881 77.9895 141.772 78.369 141.556C78.7484 141.393 78.9655 141.067 79.074 140.742H79.2382V143.346H79.074C78.9655 142.966 78.7484 142.694 78.369 142.478C77.9895 142.261 77.5545 142.206 76.958 142.206H76.3615V143.129C76.3615 144.105 76.4153 144.704 76.5238 144.92C76.6862 145.137 77.0118 145.246 77.4468 145.246C78.0434 145.246 78.587 145.082 79.0749 144.757C79.5629 144.432 80.0509 143.998 80.5407 143.346L80.703 143.4L80.0509 145.625H76.0358C75.982 145.625 75.8735 145.625 75.7102 145.571H75.3846C75.1137 145.571 74.8966 145.571 74.6795 145.625H73.9727ZM80.6492 140.741L81.0825 138.841H87.2163L87.6514 140.741L87.5429 140.794C87.238 140.348 86.8724 139.946 86.4566 139.601C86.0771 139.33 85.7515 139.221 85.4806 139.221C85.2635 139.221 85.155 139.275 85.1012 139.383C84.9926 139.492 84.9926 139.819 84.9926 140.36V143.236C84.9926 144.159 85.0465 144.756 85.1012 144.973C85.2097 145.245 85.4268 145.408 85.6977 145.516V145.624H82.6029V145.516C82.8757 145.462 83.0909 145.299 83.1995 145.028C83.308 144.756 83.308 144.213 83.308 143.236V140.36C83.308 139.818 83.308 139.492 83.1995 139.383C83.1456 139.275 83.0371 139.221 82.82 139.221C82.5491 139.221 82.2235 139.33 81.8441 139.601C81.4646 139.926 81.139 140.306 80.7578 140.794L80.6492 140.741ZM90.1998 143.237C90.1998 144.16 90.2554 144.703 90.364 144.974C90.4725 145.245 90.6349 145.409 90.9605 145.517V145.625H87.8128V145.517C88.0837 145.463 88.3008 145.3 88.4094 145.028C88.5179 144.757 88.5179 144.16 88.5179 143.237V139.764C88.5179 139.547 88.5179 139.383 88.4094 139.221C88.2742 139.088 88.1056 138.994 87.9214 138.949V138.841H90.7972V138.949C90.5802 139.004 90.416 139.113 90.3622 139.221C90.2536 139.33 90.198 139.546 90.198 139.764V143.237H90.1998ZM98.1232 144.865C97.7438 145.191 97.2558 145.409 96.7678 145.571C96.3328 145.734 95.7901 145.787 95.1926 145.787C94.7047 145.787 94.2167 145.733 93.7816 145.571C93.3466 145.409 92.9671 145.191 92.5877 144.865C92.2233 144.549 91.9275 144.161 91.7185 143.726C91.5407 143.239 91.449 142.725 91.4476 142.206C91.4476 141.121 91.827 140.306 92.532 139.655C93.2389 139.004 94.1601 138.678 95.3003 138.678C95.7882 138.678 96.2233 138.733 96.7113 138.842C97.1464 139.005 97.5258 139.167 97.9599 139.438L97.472 141.066H97.3634C97.2549 140.361 97.0378 139.872 96.7113 139.547C96.3857 139.167 95.9524 139.004 95.4645 139.004C94.8123 139.004 94.2687 139.275 93.8893 139.872C93.5098 140.415 93.3456 141.175 93.3456 142.152C93.3456 143.183 93.5098 143.997 93.8893 144.594C94.2687 145.137 94.8123 145.463 95.4645 145.463C96.0062 145.463 96.4404 145.246 96.7669 144.865C97.0907 144.486 97.3634 143.889 97.472 143.075H97.5805L98.1232 144.865ZM98.5583 145.137L99.0462 143.183H99.2104C99.319 143.942 99.5899 144.486 99.9693 144.865C100.349 145.246 100.839 145.463 101.435 145.463C101.977 145.463 102.358 145.299 102.629 145.082C102.9 144.811 103.064 144.486 103.064 144.052C103.064 143.78 102.956 143.508 102.791 143.346C102.576 143.183 102.086 143.021 101.327 142.911C100.731 142.748 100.296 142.64 100.079 142.531C99.8079 142.423 99.5908 142.315 99.4284 142.152C99.2643 141.988 99.1557 141.771 99.0472 141.555C98.9421 141.335 98.8867 141.094 98.8848 140.849C98.8848 140.198 99.1557 139.655 99.6993 139.275C100.243 138.841 100.948 138.678 101.815 138.678C102.25 138.678 102.685 138.678 103.118 138.787C103.553 138.895 103.932 139.059 104.314 139.222L103.879 140.849H103.714C103.608 140.254 103.391 139.819 103.064 139.493C102.738 139.168 102.359 139.059 101.87 139.059C101.435 139.059 101.054 139.167 100.839 139.383C100.566 139.601 100.403 139.872 100.403 140.198C100.403 140.361 100.457 140.47 100.512 140.578C100.566 140.687 100.621 140.849 100.729 140.904C100.891 141.066 101.326 141.175 101.976 141.338C102.249 141.393 102.466 141.393 102.628 141.447C103.28 141.61 103.768 141.826 104.094 142.152C104.418 142.423 104.582 142.857 104.582 143.399C104.582 144.104 104.311 144.703 103.767 145.136C103.171 145.571 102.41 145.787 101.543 145.787C100.996 145.793 100.45 145.738 99.9146 145.624C99.4275 145.517 98.9377 145.354 98.5583 145.137ZM61.0564 56.8896C49.5503 49.4542 38.5878 41.0419 31.5865 25.7916C29.6328 20.4732 30.4464 18.1938 34.1377 18.7903C46.1318 18.1938 49.9854 15.0462 56.1721 12.6574C46.4036 15.4794 37.122 17.8673 31.7498 17.1075C28.9816 15.9683 27.6253 16.6734 27.6253 19.2245C29.9037 41.4761 48.7905 49.3456 61.0564 56.8896ZM73.0496 32.8467C74.6239 27.3659 77.8254 23.8917 81.5166 22.0465C85.8582 18.0306 91.3399 10.5404 94.6508 5.98174C95.6806 3.59296 98.1779 3.43151 99.3181 6.57917C101.596 13.3086 105.721 16.9452 111.095 18.5185C106.319 16.0759 103.116 11.572 101.434 5.00488C98.7745 0.39149 95.2474 0.50003 93.6722 3.64859C89.5486 9.89008 84.3925 15.588 79.1817 21.2329C72.4531 26.2258 72.942 29.4281 73.0496 32.8467ZM109.359 83.8093C112.073 81.6385 114.733 79.9019 117.445 70.8922C117.771 67.5821 119.4 65.3566 122.275 64.108C121.895 55.0992 124.881 45.7638 121.299 40.9343C118.151 37.4601 113.213 35.7782 106.429 35.9405C111.911 34.1501 117.119 35.1808 122.112 39.0344C129.766 44.1366 125.424 53.3078 125.966 58.7357C126.671 65.6831 126.618 68.1796 124.772 67.4198C118.856 66.2259 121.081 73.01 116.305 79.1968C114.623 82.3435 112.072 83.2666 109.359 83.8093ZM72.019 83.2119C77.1203 87.0108 82.5482 89.6704 90.4716 84.2434C96.7122 78.9241 99.2633 73.2791 103.116 69.2102C108.056 64.7054 109.629 59.8211 105.341 55.6966C103.93 54.9915 103.55 53.6881 102.954 52.5489C101.976 50.649 99.9684 49.8354 98.1779 48.8048C101.761 49.6193 105.288 50.9218 108.056 55.3719C112.886 61.3954 109.576 66.7147 103.985 71.9246C95.5183 84.7871 90.2536 87.392 85.3693 88.586C78.2066 89.5081 74.353 87.0655 72.019 83.2119ZM54.6517 64.4336C55.7918 70.1862 60.8932 72.6288 67.297 71.6519C70.9336 70.6203 73.7556 71.2716 76.47 72.1946C77.7725 72.8459 79.3449 72.3032 81.1372 70.5665C83.4713 67.7445 85.5317 66.442 87.5949 65.6275C89.3853 64.9225 91.2861 64.7054 92.75 63.3482C94.5423 61.7201 95.5183 59.1151 96.1148 55.5871C96.8198 60.7432 95.8439 64.8139 91.2305 66.6044C86.9445 68.0154 82.9267 71.2178 79.7262 75.4508C79.4006 77.3498 78.151 77.3498 75.9264 75.4508C73.2129 73.7142 69.3055 73.1715 64.2032 73.8227C55.8456 73.1715 54.3808 68.2872 54.6517 64.4336ZM81.7875 40.3907C86.2377 36.7003 90.4169 39.36 91.0152 43.5383C91.557 47.7176 88.2999 52.7651 85.6402 55.6957C80.1056 61.8286 72.5069 62.5884 64.5288 62.3175C73.8632 61.6125 81.0816 58.5186 85.425 52.1139C86.7804 50.1592 88.1385 47.7176 88.4084 45.3297C88.8973 40.771 84.7181 39.0344 81.7875 40.3907ZM36.5255 51.137C33.5402 60.0911 41.844 61.6115 42.6038 68.5043C42.7123 70.0238 44.0686 71.163 47.1624 71.163C54.3808 72.8459 57.9088 79.1412 65.2348 76.1568C62.1956 77.6763 60.0248 79.7395 54.5969 77.1884C50.7981 74.474 46.6735 73.1177 44.0686 73.4442C41.7893 73.2271 39.6185 72.792 40.0526 71.0554C39.9988 66.3335 37.9365 63.7285 35.9281 60.9603C32.9428 57.2152 33.8111 54.0676 36.5255 51.137ZM38.0451 28.1795C43.3088 30.6759 50.2025 31.4357 52.2647 38.7626C54.3808 48.8029 56.5516 51.8421 60.6223 53.4163C58.3429 50.2687 55.6833 47.2834 55.9551 43.1042L56.1183 43.7554C56.7148 31.1639 67.4065 29.5905 62.3589 9.4012C59.1574 0.988914 65.3442 2.45466 68.5466 4.57073C81.409 8.20726 82.1697 5.76466 88.7359 7.33894C79.4544 5.00488 70.8259 4.78781 65.9407 1.31453C63.0101 -2.48436 56.0089 4.35456 58.7771 8.74996C66.1587 29.8614 55.9551 30.9477 55.5756 39.4138C53.4577 32.6305 46.6735 29.6452 38.0451 28.1795ZM27.6782 38.6002C26.5928 42.8871 25.7245 47.121 26.538 51.4079C27.1893 55.4786 27.1346 58.8433 25.5612 60.6347C23.716 61.4492 23.9331 62.8593 26.2662 64.7592C32.7795 68.8299 35.3298 75.5594 38.3689 82.0179C42.5481 87.5534 47.5957 88.9107 55.5738 85.0023C57.9617 83.3195 60.3496 82.6683 63.1178 82.1256C65.5604 81.2582 67.4046 79.6301 69.0875 77.5669C67.0799 80.7693 66.8081 83.2657 50.7442 89.2354C43.4712 90.7549 37.9356 88.5303 35.2212 82.8315C31.4223 74.3654 29.0892 68.3957 23.2819 64.3798C19.2112 62.7517 19.9171 60.9065 21.9794 59.6578C25.9954 56.076 23.1195 50.7029 24.4211 47.0125C25.0194 42.5076 26.3219 40.3907 27.6782 38.6002ZM53.5125 93.8488C56.9319 97.8647 62.0333 99.3843 69.1431 97.9194C72.9429 96.9426 76.3067 97.105 78.804 99.8741C79.8338 101.557 81.191 100.959 81.897 99.657C84.0687 94.2838 89.2239 92.2225 94.8679 90.5935C103.118 88.9654 105.019 85.5459 106.048 81.9094C106.43 85.8725 105.343 89.7252 94.4885 92.9266C89.1153 94.4471 84.5038 97.1606 82.8757 103.945C83.1995 108.774 77.6648 107.2 78.0443 103.728C77.6092 100.417 74.8966 99.4408 70.7174 100.037C60.7308 100.525 55.52 98.1374 53.5125 93.8488ZM67.297 50.3234C64.5288 45.9271 63.0092 41.9649 66.7543 40.5001C70.4985 39.0891 73.3752 41.0428 75.5469 44.299C77.3921 47.0672 77.8254 50.2687 75.4384 50.8661C79.6176 52.8736 80.3227 47.3919 76.47 41.694C74.4606 39.6318 70.825 37.0268 67.5688 37.4601C60.2967 38.3284 62.7922 47.2296 67.297 50.3234ZM79.4535 30.893C82.8738 28.4513 86.836 26.9317 92.3706 28.4513C94.8661 29.1025 94.7047 28.9393 97.0378 28.4513C98.5036 28.1257 99.4266 28.5598 99.9146 29.7538C100.565 31.2195 100.946 32.2502 101.976 33.6074C105.124 37.949 106.86 41.9649 106.481 46.3065C108.217 43.5383 108.815 40.283 105.449 35.2893C103.388 32.2502 102.898 32.0331 102.356 28.3428C102.031 26.1172 101.27 24.5986 98.4479 26.0087C96.4933 26.9855 95.8439 26.5514 93.6184 26.4429C86.4018 26.1172 81.5704 26.9317 79.4535 30.893Z" fill="#A0A0A0" fill-opacity="0.6"/>
</svg>
