<svg width="211" height="58" viewBox="0 0 211 58" fill="none" xmlns="http://www.w3.org/2000/svg">
<path d="M0 0V57.7883H9.495V32.0693C26.797 55.7774 54.86 59.0584 66.676 57.7883V0H57.2865V48.0511C18.0405 43.8175 9.073 14.2883 9.495 0H0ZM81.1295 0H71.4235C70.685 24.7664 91.0465 34.3978 101.28 35.9854V57.6825H111.513V35.9854C136.939 31.1168 142.108 9.9489 141.581 0H131.77C131.77 36.6204 79.969 34.7153 81.1295 0ZM154.346 0H144.957C143.058 15.135 154.979 25.2956 161.098 28.4708C146.328 36.8321 143.902 51.3321 144.535 57.5766H154.346C156.035 23.1788 202.982 28.4708 201.505 57.5766H210.789C212.055 43.0766 200.766 32.1752 194.858 28.4708C209.628 20.0037 211.633 5.92701 210.789 0H201.505C200.028 35.1387 152.342 28.2591 154.346 0Z" fill="#A0A0A0" fill-opacity="0.6"/>
</svg>
