<svg width="181" height="22" viewBox="0 0 181 22" fill="none" xmlns="http://www.w3.org/2000/svg">
<path d="M58.9049 21.6564H56.0859V2.97815H58.9049V21.6564ZM72.5194 21.6564H69.7004V2.97815H83.4729V5.61428H72.5194V11.2434H82.3099V13.8545H72.5194V21.6564ZM105.355 21.6564H92.3596V2.97815H95.1786V19.0203H105.355V21.6564ZM146.52 16.7411L140.522 7.8434V21.6502H139.138H137.754V2.97815H140.415L146.799 12.4457L153.182 2.97815H155.843V21.6564H154.434H153.024V7.82461L147.032 16.7411L146.773 17.1168L146.52 16.7411ZM180.184 21.6564H166.209V2.97815H180.057V5.58923H169.022V10.9366H178.894V13.5477H169.022V19.0516H180.184V21.6564ZM47.2688 21.6314H43.685L38.5464 14.6685H33.964V21.6314H31.145V2.95311H39.3112C43.5144 2.95311 46.2891 5.20101 46.2891 8.68871C46.2891 11.4313 44.5193 13.4538 41.6182 14.1801L47.2688 21.6314ZM33.964 12.0887H39.1342C41.7256 12.0887 43.3943 10.7863 43.3943 8.76385C43.3943 6.74762 41.852 5.58923 39.1595 5.58923H33.964V12.0887ZM47.2688 21.6376H43.6913L38.5464 14.6748H33.964V21.6376H31.1513V2.95311H39.3112C43.5144 2.95311 46.2891 5.20101 46.2891 8.68871C46.2891 11.4375 44.5256 13.4538 41.6182 14.1864L47.2688 21.6376ZM33.964 12.0887H39.1279C41.7193 12.0887 43.3879 10.7801 43.3879 8.76385C43.3879 6.74762 41.8457 5.58923 39.1532 5.58923H33.964V12.0887ZM47.2688 21.6314H43.685L38.5464 14.6685H33.964V21.6314H31.145V2.95311H39.3112C43.5144 2.95311 46.2891 5.20101 46.2891 8.68871C46.2891 11.4313 44.5193 13.4538 41.6182 14.1801L47.2688 21.6314ZM33.964 12.0887H39.1342C41.7256 12.0887 43.3943 10.7863 43.3943 8.76385C43.3943 6.74762 41.852 5.58923 39.1595 5.58923H33.964V12.0887ZM47.2688 21.6376H43.6913L38.5464 14.6748H33.964V21.6376H31.1513V2.95311H39.3112C43.5144 2.95311 46.2891 5.20101 46.2891 8.68871C46.2891 11.4375 44.5256 13.4538 41.6182 14.1864L47.2688 21.6376ZM33.964 12.0887H39.1279C41.7193 12.0887 43.3879 10.7801 43.3879 8.76385C43.3879 6.74762 41.8457 5.58923 39.1532 5.58923H33.964V12.0887ZM127.42 21.6564H130.517L121.927 2.85292H119.513L110.923 21.6564H113.919L116.062 16.8162H125.296L127.42 21.6564ZM117.155 14.3429L120.695 6.34062L124.209 14.3429H117.155ZM22.6881 11.2059C22.6881 17.1418 17.8276 21.957 11.8357 21.957C5.84384 21.957 0.983337 17.1418 0.983337 11.2059C0.983337 5.87726 4.90208 1.45033 10.0344 0.598755L10.0533 0.673894C6.0461 2.21424 3.64429 5.9524 3.64429 10.323C3.64429 15.902 7.61992 19.108 11.8357 19.108C16.2412 19.108 19.8186 15.5702 19.8186 11.1996C19.8186 7.44892 16.8226 4.33065 12.9292 4.33065C8.42263 4.33065 6.28628 8.38816 6.28628 8.38816L6.21676 8.36311C6.21676 8.36311 8.24565 2.53984 14.1238 2.53984C17.7454 2.54611 22.6881 5.47652 22.6881 11.2059Z" fill="#A0A0A0" fill-opacity="0.6"/>
</svg>
